<?xml version="1.0" standalone="no"?>
<!DOCTYPE svg PUBLIC "-//W3C//DTD SVG 20010904//EN"
 "http://www.w3.org/TR/2001/REC-SVG-20010904/DTD/svg10.dtd">
<svg version="1.0" xmlns="http://www.w3.org/2000/svg"
 width="500.000000pt" height="500.000000pt" viewBox="0 0 500.000000 500.000000"
 preserveAspectRatio="xMidYMid meet">
<metadata>
Created by potrace 1.14, written by Peter Selinger 2001-2017
</metadata>
<g transform="translate(0.000000,500.000000) scale(0.100000,-0.100000)"
fill="#000000" stroke="none">
<path d="M981 4985 c-24 -8 -61 -31 -83 -52 -116 -113 -67 -314 88 -359 l54
-15 0 -919 0 -919 -54 -15 c-73 -21 -129 -82 -146 -158 -48 -216 218 -356 368
-194 25 27 43 58 47 80 l7 36 244 0 c134 0 244 -3 244 -7 0 -5 -140 -464 -312
-1021 l-313 -1013 -43 6 c-109 16 -218 -59 -242 -167 -47 -208 200 -350 357
-205 32 29 47 54 59 93 l15 54 1209 0 1209 0 15 -54 c21 -73 82 -129 158 -146
216 -48 356 218 194 368 -27 25 -58 43 -80 47 l-36 7 0 928 0 928 36 7 c22 4
53 22 80 47 90 83 95 214 12 304 -115 125 -320 76 -365 -88 l-16 -58 -948 0
-948 0 9 28 c5 15 145 466 310 1002 166 536 305 989 311 1007 9 29 14 32 39
27 15 -4 52 1 83 10 159 46 206 250 83 364 -124 114 -320 53 -357 -112 l-12
-56 -492 0 -492 0 -12 56 c-17 76 -73 138 -144 159 -60 18 -78 18 -136 0z
m1297 -284 c12 -37 80 -112 113 -123 11 -4 -26 -133 -170 -599 -100 -327 -244
-793 -320 -1036 l-136 -443 -247 0 -246 0 -12 52 c-17 69 -76 133 -139 152
l-46 13 0 923 0 923 44 13 c55 16 118 76 133 126 l11 38 502 0 502 0 11 -39z
m1427 -2267 c10 -58 77 -122 147 -141 l58 -16 0 -918 0 -917 -52 -12 c-69 -17
-133 -76 -152 -139 l-13 -46 -1213 0 -1213 0 -13 46 c-10 32 -28 59 -59 88
l-46 42 311 1007 c171 554 313 1015 316 1025 5 16 60 17 964 17 l958 0 7 -36z"/>
</g>
</svg>
